<?xml version="1.0" standalone="no"?>
<!DOCTYPE svg PUBLIC "-//W3C//DTD SVG 1.1//EN" "http://www.w3.org/Graphics/SVG/1.1/DTD/svg11.dtd" >
<!--
2013-9-30: Created.
-->
<svg>
<metadata>
Created by iconfont
</metadata>
<defs>

<font id="iconfont" horiz-adv-x="1024" >
  <font-face
    font-family="iconfont"
    font-weight="500"
    font-stretch="normal"
    units-per-em="1024"
    ascent="896"
    descent="-128"
  />
    <missing-glyph />
    
    <glyph glyph-name="zan" unicode="&#58886;" d="M580.571135-96c-26.84566594 0-52.1141925 10.45712437-71.21130187 29.41709063L127.48622937 313.64498249999997A318.61657406 318.61657406 0 0 0 32.00068531 541.7474325000001c0 86.36556 33.97708219 167.45112938 95.6569725 228.41102062A324.20513531 324.20513531 0 0 0 356.82296281 863.99828531c78.27414563 0 146.26259625-27.22280813 207.32534438-83.17699406h0.85714125l14.94854437-15.18854438 9.94283906 10.83426657C651.30243688 835.33548 721.48516906 863.99828531 804.31930625 863.99828531a323.99942156 323.99942156 0 0 0 229.09673438-93.77126062C1096.05592812 708.64999125 1129.14158375 629.6558474999999 1129.14158375 541.7817178099999c0-86.36556-33.94279687-167.45112938-95.58840094-228.34244906L651.81672219-66.51433874999998A100.45696313 100.45696313 0 0 0 580.571135-96z"  horiz-adv-x="1170" />

    
    <glyph glyph-name="random" unicode="&#58897;" d="M219.99999969 480.88000031l16.00000031-17.76 84.79999969 94.2-15.99999938 17.79999938c-56.08000031 62.71999969-132.40000031 97.92-212.00000062 97.76000062H32V539.59999969h60.40000031c47.88 0.19999969 93.84-20.92000031 127.59999938-58.68z m532.00000031-252.40000031h-60.40000031c-47.76-0.12-93.55999969 21-127.2 58.63999969l-15.6 17.32000031-84.79999969-94.2 15.6-17.35999969c56.08000031-62.71999969 132.40000031-97.92 211.99999969-97.76000062H752V-16.00000031000002l240 177.76000031-240 177.79999969v-111.12z m-60.40000031 311.08000031H752v-111.12l240 177.79999969L752 784.00000031v-111.12h-60.40000031c-79.60000031 0.16000031-155.92000031-35.04-211.99999969-97.76000062l-259.60000031-288c-33.76000031-37.75999969-79.72000031-58.87999969-127.59999938-58.68H32v-133.32h60.40000031c79.60000031-0.16000031 155.92000031 35.04 211.99999969 97.76000062l259.60000031 288c33.76000031 37.75999969 79.72000031 58.87999969 127.59999938 58.68z"  horiz-adv-x="1024" />

    
    <glyph glyph-name="pinglun" unicode="&#58885;" d="M512 829C266.24 829 67 654.67 67 439.63c0-122.9 65.23-232.32 166.87-303.69V-61l195 118.3a508.35 508.35 0 0 1 83.17-7c245.77 0 445 174.32 445 389.37S757.77 829 512 829zM289.5 384a55.62 55.62 0 1 0 55.62 55.62A55.62 55.62 0 0 0 289.5 384z m222.5 0a55.62 55.62 0 1 0 55.62 55.62A55.62 55.62 0 0 0 512 384z m222.5 0a55.62 55.62 0 1 0 55.62 55.62A55.62 55.62 0 0 0 734.5 384z"  horiz-adv-x="1024" />

    
    <glyph glyph-name="new" unicode="&#59149;" d="M512 864h640.00000031a480 480 0 0 0 0-960H32V384a480 480 0 0 0 480 480zM343.83999969 566.71999969V223.99999968999998H399.99999969V474.55999969h1.92L573.27999969 223.99999968999998h54.72V566.71999969h-56.64v-247.2h-1.92L399.99999969 566.71999969H343.83999969z m450.08000062-87.84c-36.96 0-66.24-12.48-87.36-37.92-22.08-24.96-32.64-55.68-32.64-92.64 0-41.28 11.52-73.44 34.56-96.96 21.6-22.56 50.88-34.08 87.84-34.08 33.06666656 0 60.48 9.6 82.56 28.32 17.28 15.36 28.8 35.04 34.56 58.08H858.66666688c-6.72-13.92-13.92-24-22.08-30.24-10.56-7.68-24-11.52-40.8-11.52-19.73333344 0-35.04 6.24-45.6 18.24-10.56 12-16.8 29.76-18.72 52.8h185.76c0 44.64-10.13333344 79.68-29.76 104.64-21.6 27.84-52.8 41.28-93.6 41.28z m1.44-44.64c38.4 0 60-19.68 64.8-60h-127.68c3.36 19.68 10.08 34.56 20.16 44.64 10.56 10.56 24.48 15.36 42.66666656 15.36z m136.58666625 37.92h60.48l49.44-183.36 48.96 183.36h50.4l48.96-183.36 49.44 183.36h60.48L1216.58666656 223.99999968999998h-50.88l-49.44 181.44L1066.34666656 223.99999968999998h-50.88l-83.52 248.16z"  horiz-adv-x="1706" />

    
    <glyph glyph-name="guidang" unicode="&#58905;" d="M66.56 562.13333344h57.81333375L193.49333375 480h630.39999937l66.77333344 82.34666625h66.77333344V117.33333374999995A178.77333375 178.77333375 0 0 0 778.66666625-61.440000000000055H245.33333375A178.77333375 178.77333375 0 0 0 66.56 117.33333374999995zM362.66666656 279.25333312v60.16000032a29.01333375 29.01333375 0 1 1-57.81333281 0v-88.96000032a29.44000031 29.44000031 0 0 1 29.01333281-29.01333281h371.83999969a29.44000031 29.44000031 0 0 1 29.01333375 29.01333282v88.96000031a29.01333375 29.01333375 0 1 1-57.81333375 0v-60.16000031zM155.52000031 651.3066665599999H868.26666687v-60.16000031l-59.94666656-73.59999937H215.67999969l-60.15999938 73.59999937V651.3066665599999zM155.52000031 829.44H868.26666687v-60.16000031l-59.94666656-73.38666656H215.67999969L155.52000031 769.27999969V829.44z"  horiz-adv-x="1024" />

    
    <glyph glyph-name="lianjie" unicode="&#59023;" d="M470.64412087 560.1573017000001m48.27182294 48.27182293l248.26198506 248.26198507q48.27182293 48.27182293 96.54364587 0l179.3056864-179.3056864q48.27182293-48.27182293 0-96.54364587l-248.26198613-248.26198507q-48.27182293-48.27182293-96.54364587 0l-179.30568533 179.3056864q-48.27182293 48.27182293 0 96.54364587ZM56.88219021 146.39537102999998m48.27182293 48.27182293l248.26198507 248.26198507q48.27182293 48.27182293 96.54364586 0l179.3056864-179.30568533q48.27182293-48.27182293 0-96.54364587l-248.26198506-248.26198613q-48.27182293-48.27182293-96.54364587 0l-179.3056864 179.3056864q-48.27182293 48.27182293 0 96.54364586ZM349.96456354 232.58471076m34.4902176 34.4902176l293.0582368 293.0582368q34.4902176 34.4902176 68.98043413 0l-0.02413546 0.02413654q34.4902176-34.4902176 0-68.9804352l-293.0582368-293.0582368q-34.4902176-34.4902176-68.9804352 0l0.02413653-0.02413654q-34.4902176 34.4902176 0 68.9804352ZM574.09063714 456.71078543l103.44651627 103.44651627a48.77653333 48.77653333 0 0 0 68.95629866-68.95629974l-103.44651626-103.44651626L574.09063714 456.71078543zM504.26544461 387.7544857l68.95629973 68.95629973 69.82519147-69.5838336-68.95629867-68.95629867z"  horiz-adv-x="1129" />

    
    <glyph glyph-name="fenlei" unicode="&#59171;" d="M956.288 140.928H64.768V659.264h825.216c36.672 0 66.432-28.928 66.432-64.64v-453.696h-0.128zM621.952 659.264c0 59.712-49.92 108.16-111.424 108.16H64.64V659.2h557.248zM176.128 285.44000000000005V609.9200000000001h668.8v-324.48zM956.288 72.38400000000001V492.8a55.04 55.04 0 0 1-55.68 54.016H120.448a55.04 55.04 0 0 1-55.68-54.144v-420.16c0-36.8 30.72-66.752 68.672-66.752H887.68c18.24 0 35.712 7.04 48.576 19.52 12.8 12.48 20.096 29.44 20.032 47.104z"  horiz-adv-x="1024" />

    
    <glyph glyph-name="biaoqian" unicode="&#58888;" d="M900.224 770.56h-204.8c-48.128 0-115.712-28.16-150.016-61.952l-344.064-344.064c-34.304-34.304-34.304-90.112 0-124.416l256.512-256.512c34.304-34.304 90.112-34.304 124.416 0l344.064 344.064c34.304 34.304 61.952 101.376 61.952 150.016v204.8c0 48.64-39.424 88.064-88.064 88.064zM783.488 477.696c-48.64 0-88.064 39.424-88.064 88.064s39.424 88.064 88.064 88.064 88.064-39.424 88.064-88.064-39.936-88.064-88.064-88.064zM72.32 281.6l313.344-313.344c-33.28-17.408-75.264-12.288-103.424 15.36L25.728 240.128c-34.304 34.304-34.304 90.112 0 124.416l344.064 344.064c34.304 34.304 101.376 61.952 150.016 61.952l-447.488-447.488c-11.776-11.776-11.776-30.208 0-41.472z"  horiz-adv-x="1024" />

    
    <glyph glyph-name="rili" unicode="&#58911;" d="M270.988 534.45V756.797h565.11l77.39-54.896V534.45zM809.142-83.503H193.42c-69.088 0-125.233 56.145-125.233 125.232V657.45c0 69.088 56.145 125.233 125.233 125.233h615.72c69.089 0 125.234-56.145 125.234-125.233v-615.72c0-69.088-56.145-125.233-125.233-125.233zM193.42 740.909c-46.059 0-83.46-37.49-83.46-83.459v-615.72c0-46.06 37.49-83.46 83.46-83.46h615.72c46.06 0 83.46 37.49 83.46 83.46V657.45c0 46.06-37.49 83.46-83.46 83.46h-615.72zM335.97 673.339h-15.978c-25.974 0-47.13 21.244-47.13 47.13V796.073c0 25.974 21.245 47.13 47.13 47.13h15.978c25.975 0 47.13-21.245 47.13-47.13v-75.604c0-25.975-21.244-47.13-47.13-47.13zM327.937 652.452c-41.864 0-75.961 34.098-75.961 75.96V788.04c0 41.863 34.097 75.961 75.96 75.961s75.962-34.098 75.962-75.96v-59.627c0.089-41.863-34.009-75.961-75.961-75.961z m0 169.863c-18.924 0-34.277-15.353-34.277-34.276v-59.626c0-18.923 15.353-34.276 34.277-34.276s34.276 15.353 34.276 34.276v59.626c0 18.923-15.353 34.276-34.276 34.276zM670.163 673.339h15.977c25.975 0 47.13 21.244 47.13 47.13V796.073c0 25.974-21.244 47.13-47.13 47.13h-15.977c-25.975 0-47.13-21.245-47.13-47.13v-75.604c0-25.975 21.155-47.13 47.13-47.13zM678.107 652.452c-41.864 0-75.961 34.098-75.961 75.96V788.04c0 41.863 34.097 75.961 75.96 75.961s75.962-34.098 75.962-75.96v-59.627c0.089-41.863-34.009-75.961-75.961-75.961z m0 169.863c-18.923 0-34.276-15.353-34.276-34.276v-59.626c0-18.923 15.353-34.276 34.276-34.276s34.276 15.353 34.276 34.276v59.626c0 18.923-15.353 34.276-34.276 34.276zM101.303 513.651h820.218M101.303 534.538h820.218v-41.774H101.303zM504.137 13.344l-86.315 12.23v11.603l122.466 323.214H358.91c0 25.082-0.625 49.629-0.625 74.71l14.728 12.23h259.035l12.229-59.984v-16.513L522.436 26.823l-18.299-13.479z"  horiz-adv-x="1024" />

    
    <glyph glyph-name="hot" unicode="&#58934;" d="M855.032799 289.154093c-116.778575 248.982024-41.428752 328.972959-40.677984 329.723727a4.095099 4.095099 0 0 1 0.40951 4.982371 4.026847 4.026847 0 0 1-4.777615 1.433284c-1.706291-0.682517-164.145221-67.296128-143.737978-215.129204-44.704832 39.449454-252.872368 241.883852-125.446535 479.87736 0.682517 1.433285 0.546013 3.276079-0.682517 4.436357a3.958596 3.958596 0 0 1-4.436357 1.023775c-2.730066-1.160278-67.77389-28.460939-119.44039-97.599861-47.776156-63.542287-92.139729-176.08926-32.351282-350.335727 21.840528-81.970233-19.315217-148.447342-41.29225-176.567021 5.460132 19.451721 12.217046 52.280765 11.056768 90.092179-1.706291 55.283838-21.977032 131.725687-108.520126 181.208134a4.095099 4.095099 0 0 1-4.436357-0.273006 4.231602 4.231602 0 0 1-1.569788-4.095099c0.273007-1.501536 32.760793-147.082309-24.092833-214.310185-49.004686-58.218659-97.053848-159.231102-71.11822-252.94062 21.840528-78.284644 89.819173-138.141342 202.366146-177.590797 28.9387-8.736211 56.580619-15.424873 87.020855-21.021508 2.04755-0.40951 4.026847 0.682517 4.572861 2.593562a4.026847 4.026847 0 0 1-2.115802 4.845868c-57.8774 24.707098-117.529344 76.03234-73.16577 180.457366 42.247772 90.023928 34.603587 136.298548 26.208634 156.296281 21.840528-12.148794 65.112075-43.40805 54.328315-98.691888a4.095099 4.095099 0 0 1 1.842794-4.16335c1.569788-0.887271 3.207828-0.682517 4.504609 0.273006 1.365033 1.023775 131.520932 106.609079 72.415002 235.741204 29.211707-16.585151 106.472576-74.3943 60.948725-207.48502-15.151867-57.126632 26.276886-98.282378 27.983177-99.988669a4.095099 4.095099 0 1 1 6.688662 4.299854c-1.365033 3.549086-32.214779 85.451067 34.671839 130.565409-3.549086-20.953257-9.213973-73.029267 14.742356-101.285451 21.567522-25.526118 42.247772-67.296128 35.968621-108.110615-4.504609-28.733945-21.635773-53.031533-51.393494-71.868989a3.958596 3.958596 0 0 1-1.433284-5.050622c0.81902-1.842795 2.934821-2.730066 4.777615-1.979298 73.438777 24.024581 169.810108 71.459479 211.921377 162.165923 30.917998 67.159625 27.095906 147.15056-11.739284 238.47127z"  horiz-adv-x="1024" />

    
    <glyph glyph-name="xiaolian" unicode="&#58951;" d="M103 385c0-226.4 183.6-410 410-410s410 183.6 410 410-183.6 410-410 410-410-183.6-410-410z m0 0M267 524.4c0-40.8 33-73.8 73.8-73.8s73.8 33 73.8 73.8-33 73.8-73.8 73.8-73.8-33-73.8-73.8z m344.4 0c0-40.8 33-73.8 73.8-73.8s73.8 33 73.8 73.8c0 26.4-14.1 50.7-36.9 63.9-22.8 13.2-51 13.2-73.8 0-22.8-13.2-36.9-37.5-36.9-63.9zM513 171.8c-107.4 0-196.8 77.9-213.2 180.4-2.5 17.2 10.7 32.8 28.7 32.8h369c18 0 31.2-15.6 28.7-32.8C709.8 249.7 620.4 171.8 513 171.8z m0 0M697.5 385h-369c-18 0-31.2-15.6-28.7-32.8 0.8-5.7 1.6-11.5 3.3-17.2h419c1.6 5.7 2.5 11.5 3.3 17.2 3.3 17.2-10.7 32.8-27.9 32.8z m0 0M573.7 285.8c-24.6 0-46.7-12.3-60.7-31.2-13.1 18.9-35.3 31.2-60.7 31.2-38.5 0-70.5-29.5-73.8-67.2 36.9-29.5 83.6-46.7 134.5-46.7 50.8 0 97.6 17.2 134.5 46.7-3.3 37.7-35.3 67.2-73.8 67.2z m0 0"  horiz-adv-x="1024" />

    
    <glyph glyph-name="tupian" unicode="&#59183;" d="M706.76923627 745.28809042H317.23076373c-25.20543057 0-45.8280556-20.62262501-45.82805557-45.82805559v-332.25340304c0-25.20543057 20.62262501-45.8280556 45.82805557-45.82805558h389.53847254c25.20543057 0 45.8280556 20.62262501 45.82805557 45.82805558V699.46003483c0 25.20543057-20.62262501 45.8280556-45.82805557 45.82805558zM317.23076373 722.37406261h389.53847254c12.60271529 0 22.9140278-10.31131251 22.91402778-22.91402778v-228.85385262l-70.46063547 70.46063548c-8.59276042 8.59276042-20.04977433 13.46199133-32.36606426 13.46199133-12.31628994 0-23.77330384-4.86923091-32.36606426-13.46199133l-35.80316843-35.80316843-71.8927622 71.89276221c-17.75837154 17.75837154-46.97375697 17.75837154-64.73212853 0L294.31673595 449.41070652V699.46003483c0 12.60271529 10.31131251 22.9140278 22.91402778 22.91402778z m-22.91402778-355.16743082v49.83801046l144.07194976 144.07194976c8.87918577 8.87918577 23.48687849 8.87918577 32.36606427 0l216.82398799-216.823988H317.23076373c-12.60271529 0-22.9140278 10.31131251-22.91402778 22.91402778z m423.05023816-20.33619967L575.01357643 489.22382981l35.80316844 35.80316843c4.29638021 4.29638021 10.02488716 6.58778299 16.32624481 6.58778299 6.0149323 0 11.74343925-2.29140277 16.3262448-6.58778299l86.50045492-86.50045493V367.20663178999996c-0.28642535-8.87918577-5.4420816-16.61267016-12.60271529-20.33619967zM626.57013898 607.80392365c22.05475176 0 40.09954865 18.04479689 40.09954864 40.09954863s-18.04479689 40.09954865-40.09954864 40.09954865-40.09954865-18.04479689-40.09954864-40.09954865 18.04479689-40.09954865 40.09954864-40.09954863z m0 57.28506949c9.45203647 0 17.18552085-7.73348438 17.18552085-17.18552085s-7.73348438-17.18552085-17.18552085-17.18552085-17.18552085 7.73348438-17.18552085 17.18552085 7.73348438 17.18552085 17.18552085 17.18552085z"  horiz-adv-x="1024" />

    
    <glyph glyph-name="up3" unicode="&#58883;" d="M520.355 157.50166665999996c45.898 0 83.6-37.703 83.603-83.603 0-45.898-37.703-143.433-83.602-143.433s-83.603 97.536-83.602 143.433c-0.001 45.898 37.295 83.194 83.6 83.603zM440.851 100.13166665999995l2.459-2.459c42.621-42.621 112.288-42.621 154.909 0l1.639 1.639c-10.655 33.605-42.21 57.783-79.913 57.783-36.471 0.411-68.028-23.767-79.094-56.962zM512.158 406.67166666c140.154 0 253.671-85.65 253.671-218.429v-63.11c0-132.778-113.517 72.534-253.671 72.534s-253.673-206.135-253.673-72.534v63.11c0.003 132.778 113.52 218.427 253.673 218.429zM512.158 870.57566666c42.621 0 168.432-144.663 168.842-406.531-0.411-170.071-24.179-253.673-24.179-253.673-18.442-95.486-72.126-96.714-144.254-96.715s-126.22 0.82-144.254 96.715c0 0-23.77 84.422-24.179 254.493 0 261.457 124.994 406.121 168.022 405.71zM660.919 251.35066666c-19.671-99.174-75.405-100.813-149.991-100.813-75.405 0-131.139 0.819-149.991 100.813l-3.687 15.982c5.737-37.703 11.065-56.964 11.065-56.964 18.033-95.895 72.126-96.714 144.254-96.715s125.403 1.639 144.254 96.715c0 0 11.063 39.753 18.442 120.074-6.967-52.867-14.346-79.097-14.346-79.097zM512.158 596.00066666c40.162 0 72.534-32.375 72.534-72.534 0-40.162-32.375-72.534-72.534-72.534-40.162 0-72.534 32.375-72.534 72.534s32.785 72.948 72.534 72.534zM520.767 350.52566665999996c20.491 0 37.291-56.143 37.291-156.14s-16.801-143.843-37.703-143.433c-20.491 0-37.703 43.44-37.703 143.433 0.411 100.403 16.801 156.14 38.112 156.14zM473.226 562.80866666c10.245 10.245 24.178 15.984 38.932 15.984s28.688-5.739 38.932-15.984 15.984-24.178 15.984-38.932c0-14.753-5.737-28.688-15.984-38.933s-24.178-15.982-38.932-15.982c-14.753 0-28.688 5.737-38.932 15.982s-15.982 24.178-15.982 38.933c-0.001 14.753 5.739 28.688 15.982 38.932M460.932 575.10066666c-13.113-13.113-21.311-31.146-20.901-51.225 0-40.162 32.375-72.534 72.534-72.534 19.671 0 38.112 7.786 51.225 20.901s21.311 31.146 20.901 51.225c0 40.162-32.375 72.534-72.534 72.534-20.08 0.411-38.112-7.786-51.225-20.901zM397.002 734.9296666600001c31.147-23.767 74.995-38.113 123.351-38.113 42.21 0.411 80.733 11.065 110.649 29.507-40.163 94.256-93.847 143.843-118.847 144.255-24.179 0.411-75.403-46.718-115.156-135.649z"  horiz-adv-x="1024" />

    
    <glyph glyph-name="up2" unicode="&#58884;" d="M552.66347656 30.13652344000002c0-36.81826172-40.70478516-93.98847656-40.70478515-93.98847657s-40.64238281 60.99521484-40.64238282 93.98847657c0 27.94042969 17.71347656 50.76826172 40.64238282 50.76826172 22.86914063 0 40.70478516-22.82783203 40.70478515-50.76826172m14.50195313 438.075c32.99414063 30.47695312 35.52978516 82.575 5.05283203 115.6086914-30.47695312 33.01347656-82.51347656 35.59130859-115.56826172 5.11347657-32.99326172-30.47695312-35.52978516-82.61542969-5.03173828-115.60869141 30.47695312-33.03369141 82.53369141-35.59130859 115.54804687-5.11347656M798.36347656 160.94238281000003v-15.21826172l-176.56347656 35.5913086c-11.35195313-38.12695313-57.12890625-67.29609375-110.41347656-67.29609375-53.36630859 0-99.12304688 29.22978516-110.49609375 68.58457031l-175.25390625-34.30283203v15.23935547c0 86.33847656 24.13652344 148.54042969 78.7086914 200.6586914-19.08369141 246.33369141 91.39130859 402.50390625 200.59804688 466.05761719L511.34521484 834l6.3413086-3.74326172c109.22695313-63.55195312 218.39326172-219.72304687 200.6586914-466.09804687 55.92304687-52.09716797 80.01826172-114.34042969 80.01826172-203.21542969"  horiz-adv-x="1024" />

    
    <glyph glyph-name="Connectorsplitdown-px" unicode="&#60185;" d="M794.00515598 529.19531223v-446.90624946l80.61328152 80.61328071a35.15625027 35.15625027 0 0 0 49.71093777-49.71093696l-90.9140625-90.9140625-35.47265652-35.47265652-10.44140625-10.44140625-2.81249973-2.81249973-0.70312554-0.73828125-0.2109375-0.17578179-0.07031223-0.07031223-24.85546848 24.85546848 24.85546848-24.85546848a35.15625027 35.15625027 0 0 0-49.71093777 0l-140.62499946 140.62500027a35.15625027 35.15625027 0 1 0 49.71093696 49.71093696l80.61328152-80.61328071v337.04296848c-29.35546902-22.07812527-65.88281223-35.15625027-105.43359348-35.15625027h-175.81640625a140.62500027 140.62500027 0 0 1-140.62500027-140.62499946v-161.22656304l80.61328152 80.61328152a35.15625027 35.15625027 0 1 0 49.71093696-49.71093777l-140.62499946-140.62499946a35.15625027 35.15625027 0 0 0-49.71093777 0l-140.62500027 140.62499946a35.15625027 35.15625027 0 1 0 49.71093777 49.71093777l80.61328152-80.61328152v161.22656304a210.9375 210.9375 0 0 0 210.9375 210.9375h175.81640625a105.46875 105.46875 0 0 1 101.25 75.86718696A140.58984375 140.58984375 0 0 0 758.88406223 805.875a140.58984375 140.58984375 0 0 0 35.12109375-276.67968777z m-105.43359348 136.12500054A70.27734402 70.27734402 0 1 0 829.12624973 665.24999973a70.27734402 70.27734402 0 0 0-140.55468723 0.07031304z"  horiz-adv-x="1024" />

    
    <glyph glyph-name="Document" unicode="&#59141;" d="M832 0V544h-160c-52.768 0-96 43.2-96 96V800H224c-17.6 0-32-14.4-32-32v-768c0-17.6 14.4-32 32-32h576c17.632 0 32 14.4 32 32zM640 754.88V640c0-17.6 14.4-32 32-32h114.912L640 754.88z m254.72-170.88c0.96-2.56 1.28-5.12 1.28-8v-576c0-52.8-43.2-96-96-96H224c-52.768 0-96 43.2-96 96V768c0 52.8 43.232 96 96 96h384c2.912 0 5.44-0.32 8-1.28 1.632 0 2.912-0.64 4.512-1.28 3.84-1.6 7.328-3.84 10.208-6.72l256-256c2.912-2.88 5.12-6.4 6.72-10.24 0.64-1.6 1.28-2.88 1.28-4.48zM288 96a32 32 0 0 0 32 32h384a32 32 0 1 0 0-64H320a32 32 0 0 0-32 32z m32 128a32 32 0 1 0 0 64h192a32 32 0 1 0 0-64h-192z"  horiz-adv-x="1024" />

    
    <glyph glyph-name="rss1" unicode="&#61596;" d="M320.16155 64.082c0-70.738-57.344-128.082-128.082-128.082S63.99955-6.656 63.99955 64.082s57.344 128.082 128.082 128.082 128.08-57.346 128.08-128.082z m351.32-94.5c-16.708 309.2-264.37 557.174-573.9 573.9C79.31155 544.47 63.99955 529.79 63.99955 511.494v-96.138c0-16.83 12.98-30.944 29.774-32.036 223.664-14.568 402.946-193.404 417.544-417.544 1.094-16.794 15.208-29.774 32.036-29.774h96.138c18.298-0.002 32.978 15.31 31.99 33.58z m288.498-0.576C943.19155 436.646 566.92955 815.11 97.00555 831.98 78.94555 832.628 63.99955 818.038 63.99955 799.968v-96.136c0-17.25 13.67-31.29 30.906-31.998 382.358-15.678 689.254-322.632 704.93-704.93 0.706-17.236 14.746-30.906 31.998-30.906h96.136c18.068 0.002 32.658 14.948 32.01 33.008z"  horiz-adv-x="1024" />

    
    <glyph glyph-name="edit" unicode="&#59029;" d="M886.0625 396.421875c-32.184375 30.403125-70.18125 8.11875-70.18125-23.034375v-332.053125a20.390625 20.390625 0 0 0-20.334375-20.334375h-624a20.390625 20.390625 0 0 0-20.334375 20.334375V665.353125a20.390625 20.390625 0 0 0 20.334375 20.334375h331.378125c19.40625 0 36.9375 15.796875 38.109375 35.175A37.5 37.5 0 0 1 503.5625 760.6875H171.546875A95.334375 95.334375 0 0 1 76.2125 665.353125v-624.01875A95.334375 95.334375 0 0 1 171.546875-54h681.09375a38.26875 38.26875 0 0 1 38.26875 38.26875V385.246875a17.6625 17.6625 0 0 1-4.846875 11.175zM936.6875 656.296875l-154.6875 154.6875a37.5 37.5 0 0 1-53.034375 0l-407.4-407.53125a37.5 37.5 0 0 1-8.878125-14.11875l-82.44375-235.378125a37.5 37.5 0 0 1 47.484375-47.896875L514.8125 186.80624999999998a37.5 37.5 0 0 1 14.428125 8.98125L936.6875 603.2625a37.5 37.5 0 0 1 0 53.034375zM326.50625 201.89999999999998l54.140625 154.575 1.875 1.875L484.165625 256.78125l-1.790625-1.790625z m177.54375 74.765625L402.44375 378.271875 755.5625 731.390625l101.60625-101.60625zM531.29375 372.21562500000005a14.0625 14.0625 0 0 1 19.884375 0l246.5625 246.5625a14.0625 14.0625 0 0 1-19.884375 19.884375l-246.5625-246.5625a14.0625 14.0625 0 0 1 0-19.884375zM506.56337094 347.48789719m-9.94368938-9.94368844a14.0625 14.0625 0 1 1 19.88737875 19.88737781 14.0625 14.0625 0 1 1-19.88737875-19.88737781Z"  horiz-adv-x="1024" />

    
    <glyph glyph-name="write" unicode="&#58894;" d="M841 74c-0.7-0.6-69-55.2-207.2 3.8-163.5 69.7-288.8 1.7-294-1.2-12.2-6.8-16.6-22.2-9.8-34.4 6.8-12.2 22.2-16.6 34.4-9.8 1.1 0.6 108.6 58.9 249.5-1.2 54.7-23.3 101-31.2 138.8-31.2 77 0 118.1 32.9 120.6 35 10.8 8.9 12.3 24.9 3.3 35.6-8.9 10.8-24.8 12.3-35.6 3.4zM529.3 407.3c-9.9 9.9-25.9 9.9-35.8 0L370.9 284.70000000000005c7.5 51.4 63.7 153.6 171.2 261.1 64 64 132 115.9 191.5 146.1 54.9 27.9 89.6 30.1 99.8 20 24.9-24.9-28.7-153.8-166.1-291.3-51.9-51.9-106.4-95.8-157.7-127.1-11.9-7.3-15.7-22.9-8.4-34.8 7.3-11.9 22.9-15.7 34.8-8.4 54.7 33.4 112.4 79.9 167.1 134.6 67.7 67.7 122.9 140.3 155.5 204.4 47.1 92.7 31.8 137.3 10.7 158.5-21.1 21.1-65.8 36.4-158.5-10.7-64.1-32.6-136.7-87.8-204.4-155.5-119-119-211.6-266.9-180.3-341.8L142 55.799999999999955c-9.9-9.9-9.9-25.9 0-35.8 4.9-4.9 11.4-7.4 17.9-7.4s13 2.5 17.9 7.4l351.5 351.5c9.9 9.9 9.9 25.9 0 35.8z"  horiz-adv-x="1024" />

    
    <glyph glyph-name="download" unicode="&#59608;" d="M963.51590058 559.8759099700001A352.76642227 352.76642227 0 0 1 323.98451563 673.6715302800001a273.10948769 273.10948769 0 0 1 22.7591244-546.21897627 45.51824795 45.51824795 0 0 1 0 91.03649589 182.0729918 182.0729918 0 0 0 0 364.14598447h14.33824805l4.55182471 1.36554698 3.86905078 1.59313886 4.09664268 2.2759128 3.41386875 2.0483209a24.3522624 24.3522624 0 0 1 3.64145977 3.18627773l2.95868583 2.73109482a17.97970781 17.97970781 0 0 1 2.73109482 3.41386788 20.02802871 20.02802871 0 0 1 2.73109484 3.86905165l1.13795683 1.59313888a261.95751739 261.95751739 0 0 0 490.00393916-97.18145948v-1.36554785a5.46218964 5.46218964 0 0 1 0-1.82072988c0-2.27591279 0-4.55182471 1.59313886-6.8277375v-1.36554698a45.51824795 45.51824795 0 0 1 3.18627774-6.8277375 45.51824795 45.51824795 0 0 1 38.69051045-22.75912353h7.05532852a117.66467109 117.66467109 0 0 0 19.11766464 2.27591191 125.17518164 125.17518164 0 0 0 0-250.35036416H915.72173984a45.51824795 45.51824795 0 0 1 0-91.03649589h34.13868662a215.98408653 215.98408653 0 0 1 13.65547413 432.42335596zM749.12495205 127.45255400999997l-77.15342988-77.15343076V377.80291816a34.13868575 34.13868575 0 0 1-68.27737237 0v-327.27620303L526.76831094 127.45255400999997a34.13868575 34.13868575 0 0 1-48.24934278-48.4769338l135.189196-135.18919687a31.40759092 31.40759092 0 0 1 10.69678828-7.05532852 36.86978057 36.86978057 0 0 1 12.28992715-2.27591191 33.45591269 33.45591269 0 0 1 12.74511005 2.50350293 34.13868575 34.13868575 0 0 1 11.60715323 7.96569346l134.96160499 134.96160586A34.13868575 34.13868575 0 1 1 749.12495205 127.45255400999997z"  horiz-adv-x="1265" />

    
    <glyph glyph-name="rss" unicode="&#59995;" d="M172.18370333 820.90666667L851.81629667 820.90666667C905.216 820.90666667 948.90666667 777.216 948.90666667 723.81629667L948.90666667 44.18370332999996C948.90666667-9.216000000000008 905.216-52.90666667000005 851.81629667-52.90666667000005L172.18370333-52.90666667000005C118.784-52.90666667000005 75.09333333-9.216000000000008 75.09333333 44.18370332999996L75.09333333 723.81629667C75.09333333 777.216 118.784 820.90666667 172.18370333 820.90666667M293.54666667 238.36444444999995C253.25416334 238.36444444999995 220.72888889 205.83916998999996 220.72888889 165.54666667000004 220.72888889 125.25416333999999 253.25416334 92.72888889000001 293.54666667 92.72888889000001 333.83916999 92.72888889000001 366.36444445 125.25416333999999 366.36444445 165.54666667000004 366.36444445 205.83916998999996 333.83916999 238.36444444999995 293.54666667 238.36444444999995M220.72888889 481.09036999L220.72888889 384C381.41345223 384 512 253.41345222999996 512 92.72888889000001L609.09036999 92.72888889000001C609.09036999 307.29860779 435.29860779 481.09036999 220.72888889 481.09036999M220.72888889 675.27111111L220.72888889 578.18074112C488.69831111 578.18074112 706.18074112 360.69831110999996 706.18074112 92.72888889000001L803.27111111 92.72888889000001C803.27111111 414.58346667 542.58346667 675.27111111 220.72888889 675.27111111Z"  horiz-adv-x="1024" />

    
    <glyph glyph-name="email" unicode="&#59172;" d="M853.333333 725.333333l-682.666667 0c-47.146667 0-84.906667-38.186667-84.906667-85.333333l-0.426667-512c0-47.146667 38.186667-85.333333 85.333333-85.333333l682.666667 0c47.146667 0 85.333333 38.186667 85.333333 85.333333l0 512c0 47.146667-38.186667 85.333333-85.333333 85.333333zM853.333333 554.666667l-341.333333-213.333333-341.333333 213.333333 0 85.333333 341.333333-213.333333 341.333333 213.333333 0-85.333333z"  horiz-adv-x="1024" />

    
    <glyph glyph-name="weibo" unicode="&#59080;" d="M743.3216 399.94026667c-13.312 3.95946667-31.09546667 7.20213333-24.13226667 24.4736 15.08693333 37.4784 16.7936 78.71146667 0.44373334 101.7856-30.65173333 43.28106667-105.984 31.4368-202.06933334-8.32853334 0 0.06826667-30.17386667-13.03893333-22.45973333 10.61546667 14.77973333 46.96746667 12.56106667 86.28906667-10.4448 109.02186667-52.15573333 51.57546667-190.80533333-1.9456-309.72586667-119.3984C85.84533333 430.08 34.13333333 336.79359999999997 34.13333333 256.17066666999995c0-154.24853333 200.192-248.04693333 396.04906667-248.04693334 256.75093333 0 422.16106667 148.3776 422.16106667 265.4208C852.34346667 344.23466667 797.45706667 383.35146667000004 743.3216 399.94026667zM430.72853333 63.385599999999954c-156.29653333-15.22346667-291.19146667 54.5792-301.32906666 155.9552-10.1376 101.376 108.3392 195.92533333 264.63573333 211.18293333 156.29653333 15.2576 291.2256-54.54506667 301.32906667-155.88693333C705.46773333 173.22666667 587.02506667 78.67733333000001 430.72853333 63.385599999999954zM923.3408 679.3216c-64.1024 66.6624-158.6176 92.0576-245.8624 74.6496l-0.03413333 0c-20.20693333-4.06186667-33.04106667-22.69866667-28.74026667-41.5744 4.3008-18.90986667 24.1664-30.99306667 44.3392-26.96533333 62.0544 12.35626667 129.2288-5.7344 174.7968-53.07733334 45.49973333-47.34293333 57.89013333-111.9232 38.36586667-168.51626666l0 0c-6.3488-18.432 4.4032-38.16106667 24.09813333-44.1344 19.59253333-5.9392 40.68693333 4.13013333 47.03573333 22.528 0 0.03413333 0 0.1024 0 0.1024C1004.71466667 521.9669333300001 987.4432 612.72746667 923.3408 679.3216M827.63093333 591.90613333c-30.95893333 33.28-76.66346667 45.90933333-118.8864 37.20533334-17.23733333-3.54986667-28.22826667-20.00213333-24.54186666-36.72746667 3.6864-16.65706667 20.65066667-27.3408 37.85386666-23.72266667l0-0.03413333c20.61653333 4.23253333 43.008-1.9456 58.12906667-18.15893333 15.1552-16.2816 19.21706667-38.43413333 12.73173333-57.89013334l0.03413334 0c-5.39306667-16.24746667 3.75466667-33.6896 20.54826666-38.94613333 16.7936-5.18826667 34.78186667 3.65226667 40.20906667 19.93386667C866.95253333 513.3312000000001 858.65813333 558.62613333 827.63093333 591.90613333M483.1232 392.46506667C406.528 411.98933333 319.96586667 374.61333333000005 286.72 308.56533333000004c-33.86026667-67.3792-1.1264-142.16533333 76.25386667-166.6048 80.14506667-25.2928 174.592 13.48266667 207.42826666 86.18666667C602.79466667 299.2128 562.34666667 372.4288 483.1232 392.46506667zM424.61866667 223.43679999999995c-15.5648-23.82506667-48.87893333-34.26986667-74.00106667-23.27893333-24.74666667 10.82026667-32.0512 38.5024-16.4864 61.71306666 15.39413333 23.1424 47.58186667 33.45066667 72.4992 23.41546667C431.85493333 274.97813333 439.9104 247.50080000000003 424.61866667 223.43679999999995zM475.92106667 286.58346667c-5.632-9.216-18.05653333-13.68746667-27.81866667-9.8304-9.59146667 3.7888-12.5952 14.1312-7.13386667 23.17653333 5.59786667 9.0112 17.57866667 13.44853333 27.136 9.79626667C477.7984 306.34666667 481.28 295.90186667 475.92106667 286.58346667z"  horiz-adv-x="1024" />

    
    <glyph glyph-name="zhuanfa" unicode="&#59123;" d="M126.44471182 319.87181483999996C90.83298535 319.87181483999996 62 291.17559786000004 62 255.77701933000003L62-1.747675490000006C62-37.090242190000026 90.85288115-65.84247099000004 126.44471182-65.84247099000004L897.55528818-65.84247099000004C933.16701465-65.84247099000004 962-37.14625401000001 962-1.747675490000006L962 255.77701933000003C962 291.11958867 933.14711885 319.87181483999996 897.55528818 319.87181483999996 862.13907969 319.87181483999996 833.42857168 291.37054102 833.42857168 255.64713017999998L833.42857168 94.77635683999995C833.42857168 77.07706582000003 818.79374815 62.72895731999995 801.54918565 62.72895731999995L222.45081435 62.72895731999995C204.84431651 62.72895731999995 190.57142832 77.29083866999997 190.57142832 94.77635683999995L190.57142832 255.64713017999998C190.57142832 291.11744502 161.51009785 319.87181483999996 126.44471182 319.87181483999996ZM672.71428584 478.03016748L672.71428584 381.82196133C672.71428584 346.25474531 693.59537832 337.03002568 719.60638467 361.45542714L956.68567666 584.08261758C963.70460615 591.5112799799999 963.81873565 604.02571934 956.74273965 611.56866855L720.89584033 821.05423653C694.28590332 844.68990117 672.71428584 835.09229502 672.71428584 799.35034717L672.71428584 702.99289219C342.708592 708.5877606500001 190.57142832 529.70212676 190.57142832 349.56467900999996 190.57142832 349.56467900999996 239.67314316 478.03015518 672.71428584 478.03016748Z"  horiz-adv-x="1024" />

    
    <glyph glyph-name="lock" unicode="&#58992;" d="M880 384h-80V608c0 159.056-128.944 288-288 288S224 767.056 224 608v-224H144a48 48 0 0 1-48-48v-416a48 48 0 0 1 48-48h736a48 48 0 0 1 48 48V336a48 48 0 0 1-48 48zM560 109.312V16a48 48 0 1 0-96 0v93.312c-28.576 16.624-48 47.248-48 82.688a96 96 0 1 0 192 0c0-35.44-19.424-66.064-48-82.688zM704 384H320V608c0 106.032 85.968 192 192 192s192-85.968 192-192v-224z"  horiz-adv-x="1024" />

    
    <glyph glyph-name="search" unicode="&#58882;" d="M257.7275 638.1825A284.0175 284.0175 0 0 1 179.495 384c16.92 76.7925 56.7 151.83 118.665 213.84C360.17 659.8725 435.2075 699.63 512 716.55c-89.325 16.83-185.175-9.2475-254.2725-78.3675zM931.625 111.43499999999995l-106.965 106.965a103.725 103.725 0 0 1-81.5625 29.9925c100.5975 145.5075 86.0625 346.635-43.4925 476.2125-145.845 145.89-382.365 145.89-528.255 0-145.845-145.89-145.845-382.4325 0-528.3225 129.555-129.5775 330.525-144 476.1225-43.4025-2.25-29.25 7.785-59.355 29.9925-81.5625l106.965-106.9875c40.5-40.41 106.6725-40.41 147.0825 0 40.6125 40.41 40.6125 106.605 0.1125 147.105zM656.225 239.77499999999998c-121.8825-121.8825-319.3875-121.8825-441.225 0-121.8825 121.8825-121.8825 319.4325 0 441.315 121.8375 121.8825 319.3425 121.8825 441.225 0 121.86-121.7925 121.86-319.4325 0-441.315z"  horiz-adv-x="1024" />

    
    <glyph glyph-name="weixin" unicode="&#58987;" d="M777.78947393 570.8421049799999h36.84210469c-31.57894775 152.6315792-194.7368417 263.15789502-373.68420997 263.15789502C230.42105263 828.7368421900001 62 686.63157862 62 512.94736816c0-105.26315801 57.89473682-189.47368388 152.6315792-252.63157852l-36.84210556-110.52631581 131.57894706 63.15789463c47.36842119-10.52631563 84.21052588-21.05263125 131.57894795-21.05263125h36.84210469c-5.26315781 26.31578906-10.52631563 52.63157901-10.52631563 78.94736807-10.52631563 163.15789482 131.57894707 299.99999971 310.52631622 299.9999997z m-205.2631582 105.26315801c31.57894775 0 57.89473682-26.31578906 57.8947368-57.89473682s-26.31578906-57.89473682-57.89473681-57.89473682c-31.57894775 0-57.89473682 26.31578906-57.89473681 57.89473682s26.31578906 57.89473682 57.89473681 57.89473682zM314.63157852 560.3157893499999c-36.84210557 0-57.89473682 26.31578906-57.89473682 57.89473682s26.31578906 57.89473682 57.89473682 57.89473682c31.57894775 0 57.89473682-26.31578906 57.8947377-57.89473682-5.26315781-31.57894775-26.31578906-57.89473682-57.8947377-57.89473682zM1114.6315792 276.10526309c0 147.36842138-147.36842138 268.42105283-315.78947402 268.42105284-178.94736826 0-315.78947402-121.05263145-315.78947403-268.42105285s142.10526357-268.42105283 315.78947403-268.42105282c36.84210557 0 73.68421026 10.52631563 110.52631581 21.05263212l100.0000002-57.89473681-26.31578994 94.7368415c73.68421026 52.63157901 131.57894707 126.31578926 131.57894795 210.52631601z m-415.78947422 42.10526337c-21.05263125 0-42.10526338 15.78947344-42.10526249 42.10526339 0 21.05263125 15.78947344 42.10526338 42.10526249 42.10526249s42.10526338-15.78947344 42.10526338-42.10526249c0-21.05263125-21.05263125-42.10526338-42.10526338-42.10526339z m205.2631582 0c-21.05263125 0-42.10526338 15.78947344-42.10526338 42.10526339 0 21.05263125 15.78947344 42.10526338 42.10526338 42.10526249 21.05263125 0 42.10526338-15.78947344 42.10526338-42.10526249s-21.05263125-42.10526338-42.10526338-42.10526339z"  horiz-adv-x="1204" />

    
    <glyph glyph-name="coffee" unicode="&#58908;" d="M431.525647 84.239059h212.510118a30.117647 30.117647 0 1 1 0 60.235294h-212.510118a114.236235 114.236235 0 0 0-113.694118 97.671529l-36.924235 263.740236H800.225882l-14.155294-87.280942a30.117647 30.117647 0 1 1 59.452236-9.607529l19.787294 122.217412a30.117647 30.117647 0 0 1-29.756236 34.93647H246.302118a30.147765 30.147765 0 0 1-29.816471-34.304l6.656-47.646117c-19.877647 5.300706-45.688471 8.342588-70.957176-0.542118-18.010353-6.324706-42.586353-21.413647-57.675295-57.404235-15.028706-35.809882-12.077176-76.016941 8.282353-113.152 29.816471-54.241882 91.858824-95.503059 162.394353-108.303059a173.839059 173.839059 0 0 1 166.339765-120.560941z m-275.937882 257.837176c-8.041412 14.637176-15.540706 37.074824-5.571765 60.867765 7.047529 16.835765 15.902118 21.654588 21.955765 23.823059 19.757176 7.017412 47.375059-3.764706 56.44047-8.58353 1.325176-0.692706 2.740706-0.752941 4.096-1.234823l20.600471-147.275294c-42.767059 13.131294-79.661176 39.936-97.520941 72.402823zM536.816941 592.384a30.177882 30.177882 0 0 1 36.382118 22.166588 30.117647 30.117647 0 0 1-22.136471 36.382118c-17.197176 4.186353-29.605647 15.992471-31.232 24.545882-1.174588 6.083765 5.571765 12.288 11.414588 16.414118 32.466824 23.009882 48.308706 48.971294 46.98353 77.191529-1.957647 41.682824-41.532235 65.686588-46.049882 68.306824-14.275765 8.222118-32.496941 3.373176-40.869648-10.872471s-3.614118-32.647529 10.571295-41.170823c6.445176-3.885176 15.932235-12.920471 16.173176-19.094589 0.150588-4.427294-5.421176-13.703529-21.624471-25.178352-28.250353-19.998118-41.321412-48.007529-35.779764-76.890353 6.354824-33.430588 36.984471-62.283294 76.167529-71.800471zM356.111059 592.384a30.177882 30.177882 0 0 1 36.382117 22.166588 30.117647 30.117647 0 0 1-22.13647 36.382118c-17.197176 4.186353-29.605647 15.992471-31.232 24.545882-1.174588 6.083765 5.571765 12.288 11.414588 16.414118 32.466824 23.009882 48.308706 48.971294 46.98353 77.191529-1.957647 41.682824-41.532235 65.686588-46.049883 68.306824a30.027294 30.027294 0 0 1-40.869647-10.872471 30.238118 30.238118 0 0 1 10.571294-41.170823c6.445176-3.885176 15.932235-12.920471 16.173177-19.094589 0.150588-4.427294-5.421176-13.703529-21.624471-25.178352-28.280471-19.998118-41.321412-48.037647-35.809882-76.920471 6.384941-33.400471 37.014588-62.253176 76.197647-71.770353zM717.522824 592.384a30.177882 30.177882 0 0 1 36.382117 22.166588 30.117647 30.117647 0 0 1-22.13647 36.382118c-17.197176 4.186353-29.605647 15.992471-31.232 24.545882-1.174588 6.083765 5.571765 12.288 11.414588 16.414118 32.466824 23.009882 48.308706 48.971294 46.983529 77.191529-1.957647 41.682824-41.532235 65.686588-46.049882 68.306824a30.027294 30.027294 0 0 1-40.869647-10.872471 30.238118 30.238118 0 0 1 10.571294-41.170823c6.445176-3.885176 15.932235-12.920471 16.173176-19.094589 0.150588-4.427294-5.421176-13.703529-21.62447-25.178352-28.250353-19.998118-41.321412-48.007529-35.779765-76.890353 6.354824-33.430588 36.984471-62.283294 76.16753-71.800471zM848.685176 54.121411999999964H231.243294a30.117647 30.117647 0 0 1 0-60.235294h617.441882a30.117647 30.117647 0 0 1 0 60.235294zM894.464 212.17882399999996H834.258824v30.087529h60.235294c16.564706 0 30.117647 13.552941 30.117647 30.117647s-13.552941 30.117647-30.117647 30.117647h-38.912l30.117647 30.117647c11.715765 11.715765 11.715765 30.870588 0 42.586353s-30.870588 11.715765-42.586353 0L804.141176 336.23341200000004l-38.972235 38.972235c-11.715765 11.715765-30.870588 11.715765-42.586353 0s-11.715765-30.870588 0-42.586353l30.117647-30.117647H713.788235c-16.564706 0-30.117647-13.552941-30.117647-30.117647s13.552941-30.117647 30.117647-30.117647h60.235294v-30.087529h-60.205176c-16.564706 0-30.117647-13.552941-30.117647-30.117648s13.552941-30.117647 30.117647-30.117647H774.023529v-60.235294c0-16.564706 13.552941-30.117647 30.117647-30.117647s30.117647 13.552941 30.117648 30.117647v60.235294h60.205176c16.564706 0 30.117647 13.552941 30.117647 30.117647s-13.552941 30.117647-30.117647 30.117648z"  horiz-adv-x="1024" />

    
    <glyph glyph-name="dashang" unicode="&#58994;" d="M486.4 409.6v-102.4H341.3504c-18.8928 0-34.1504-11.4688-34.1504-25.6s15.2576-25.6 34.1504-25.6H486.4v-117.76c0-19.8144 11.4688-35.84 25.6-35.84s25.6 16.0256 25.6 35.84v117.76h145.0496c18.8928 0 34.1504 11.4688 34.1504 25.6s-15.2576 25.6-34.1504 25.6H537.6v102.4h145.0496c18.8928 0 34.1504 11.4688 34.1504 25.6s-15.2576 25.6-34.1504 25.6h-134.4512l135.5264 135.4752a25.6 25.6 0 1 1-36.2496 36.2496L512 496.9984 376.5248 632.5248a25.6 25.6 0 1 1-36.2496-36.2496L475.8016 460.8H341.3504C322.4576 460.8 307.2 449.3312 307.2 435.2s15.2576-25.6 34.1504-25.6H486.4zM512-128C229.2224-128 0 101.2224 0 384S229.2224 896 512 896s512-229.2224 512-512-229.2224-512-512-512z"  horiz-adv-x="1024" />

    
    <glyph glyph-name="close" unicode="&#59148;" d="M896.128 731.84L548.458667 384.170667l347.456-347.477333-36.650667-36.629333L511.808 347.541333 164.138667-0.12800000000004275l-36.245333 36.245333 347.669333 347.669333L127.872 731.477333l36.650667 36.629333 347.669333-347.669333L859.861333 768.106667 896.128 731.84z"  horiz-adv-x="1024" />

    
    <glyph glyph-name="tag" unicode="&#58909;" d="M917.674 340.89099999999996L549.547-26.102999999999952c-45.18-45.043-118.433-45.043-163.613 0L99.614 259.336c-45.176 45.04-45.176 118.07 0 163.109l368.13 366.994c28.12 29.415 33.51 42.31 63.015 42.31h373.947c29.502 0 53.42-23.842 53.42-53.254V405.69c0-29.412-16.757-41.174-40.452-64.799zM140.52 300.11699999999996l286.317-285.443c22.592-22.518 59.216-22.518 81.807 0l40.468 40.343-367.26 367.861-41.332-41.21c-22.591-22.52-22.591-59.034 0-81.551z m764.186 451.741c0 14.71-11.96 26.636-26.711 26.636H557.468c-14.752 0-35.696-16.74-48.823-29.83l-285.88-285.002 367.678-367.44 286.326 285.447c14.406 14.362 27.938 35.947 27.938 50.652V751.858zM610.902 483.614c-45.183 45.04-45.183 118.066 0 163.109 45.176 45.042 118.433 45.042 163.61 0 45.182-45.043 45.182-118.068 0-163.11-45.177-45.042-118.435-45.042-163.61 0z m122.706 122.333c-22.588 22.516-59.212 22.516-81.806 0-22.591-22.527-22.591-59.04 0-81.559 22.594-22.515 59.218-22.515 81.806 0 22.592 22.52 22.592 59.032 0 81.559z"  horiz-adv-x="1024" />

    
    <glyph glyph-name="tongji" unicode="&#58974;" d="M92.3872175 279.09896249999997v52.44860063L883.46302812 628.19859375 748.02781344 724.93460625V777.38608406l183.58496906-131.128695v-52.45147781L92.3872175 279.09896249999997z m104.90487469-288.48504656h-52.45435594V200.42174624999996h52.45435594v-209.80783031z m236.03069062 0H380.871305V305.32470188h52.45147781v-314.71078594z m209.80495219 0h-52.45147781V410.22669844h52.45147781v-419.6127825z m236.03356969 0h-52.45435594V488.90391469h52.45435594v-498.28999875z"  horiz-adv-x="1024" />

    
    <glyph glyph-name="user" unicode="&#58881;" d="M791.52 235.458c-8.592 8.606-22.5 8.606-31.064 0-8.564-8.55-8.564-22.5 0.028-31.050 66.361-66.389 102.881-154.603 102.881-248.456 0-12.136 9.83-21.966 21.98-21.966s21.952 9.816 21.952 21.966c-0.014 105.581-41.119 204.863-115.777 279.506zM512.014 834c-145.322 0-263.531-118.209-263.531-263.517 0-103.753 60.412-193.43 147.783-236.391-61.214-18.647-117.267-52.13-163.772-98.634-74.658-74.658-115.763-173.925-115.763-279.506 0-12.136 9.83-21.952 21.952-21.952 12.136 0 21.98 9.816 21.98 21.966 0 93.853 36.534 182.067 102.909 248.456 65.166 65.208 151.495 101.517 243.506 102.797 1.659-0.028 3.277-0.253 4.95-0.253 145.308 0 263.517 118.223 263.517 263.531-0.014 145.308-118.223 263.503-263.531 263.503zM514.348 351.009c-0.787 0.084-1.561 0.239-2.362 0.239-1.575 0-3.15-0.098-4.711-0.112-118.87 2.559-214.847 99.872-214.847 219.347 0 121.078 98.522 219.6 219.6 219.6s219.628-98.522 219.628-219.6c-0.014-120.291-97.298-218.208-217.308-219.473z"  horiz-adv-x="1024" />

    
    <glyph glyph-name="play" unicode="&#59168;" d="M512 769.333333C252.8 769.333333 42.666667 559.2 42.666667 300s210.133333-469.333333 469.333333-469.333333 469.333333 210.133333 469.333333 469.333333S771.2 769.333333 512 769.333333zM512-126.666667C276.352-126.666667 85.333333 64.352 85.333333 300 85.333333 535.648 276.352 726.666667 512 726.666667c235.648 0 426.666667-191.018667 426.666667-426.666667C938.666667 64.352 747.648-126.666667 512-126.666667zM384 86.666667 747.776 300 384 513.333333Z"  horiz-adv-x="1024" />

    
    <glyph glyph-name="right" unicode="&#58896;" d="M716.551 384.544l-396.052-396.052-27.982 27.957 368.118 368.093-366.982 366.982 27.933 27.982 394.964-394.964z"  horiz-adv-x="1024" />

    
    <glyph glyph-name="left" unicode="&#58880;" d="M307.449 383.456l396.052 396.052 27.982-27.957-368.118-368.093 366.982-366.982-27.933-27.982-394.964 394.964z"  horiz-adv-x="1024" />

    
    <glyph glyph-name="gift" unicode="&#58889;" d="M1023.756 216.174c0-11.938-9.285-21.224-21.225-21.224l-63.672 0 0-275.913c0-35.153-28.52-63.673-63.672-63.673L153.567-144.636c-35.152 0-63.672 28.52-63.672 63.673L89.895 194.95 26.222 194.95c-11.938 0-21.224 9.285-21.224 21.224L4.998 428.416c0 11.938 9.286 21.224 21.224 21.224l291.832 0c-82.243 0-148.569 66.325-148.569 148.569S235.811 746.777 318.054 746.777c44.438 0 85.56-18.571 111.427-51.07l84.896-109.437 84.896 109.437c25.867 32.499 66.988 51.07 111.427 51.07 82.243 0 148.568-66.325 148.568-148.569S792.943 449.64 710.7 449.64l291.831 0c11.939 0 21.225-9.286 21.225-21.224L1023.756 216.174zM447.388 534.536l-83.57 106.784c-7.296 8.623-23.214 20.561-45.765 20.561-35.152 0-63.672-28.52-63.672-63.672s28.52-63.672 63.672-63.672L447.388 534.537zM620.498 11.893 620.498 322.295 620.498 449.64 408.256 449.64l0-127.345 0-310.402 0-37.143c0-23.214 19.234-34.489 42.448-34.489l127.344 0c23.215 0 42.449 11.275 42.449 34.489L620.497 11.893zM710.7 661.881c-22.551 0-38.469-11.938-45.765-20.561l-82.906-106.784L710.7 534.536c35.152 0 63.672 28.52 63.672 63.672S745.853 661.881 710.7 661.881z"  horiz-adv-x="1024" />

    
    <glyph glyph-name="qq" unicode="&#58925;" d="M219.12975875 425.68086L217.55636094 430.52749406 216.2976425 436.88414437 215.41596406 440.37809531 215.41596406 444.75368906 215.41596406 449.97830625 215.41596406 454.69830656 216.92700125 460.30090781 218.50135906 466.28053406 220.51511562 472.48081031 223.25417094 479.43609469 226.87298562 486.67534594 231.97213812 493.91363813 231.97213812 498.98188219 232.4748575 503.7345 233.23085563 510.18612563 235.43361313 517.39275937 237.44832969 525.22968656 239.05338688 528.85027125 240.90980469 532.1849709400001 243.30252031 535.93123031 245.88327594 538.6692140600001 245.88327594 543.7671975000001 245.88327594 549.49547437 245.88327594 556.60809187 247.39431406 565.7986603100001 248.90439219 576.500205 251.61178719 589.34013938 255.32558188 602.62329375 258.0953375 609.98726063 260.83343281 617.95082156 263.82384781 625.40880469 267.41196219 633.37140656 271.06243719 642.08997469 275.28087031 650.2722675 280.00202281 659.0224949999999 285.98189375 667.70940469 288.71998906 672.6807543699999 291.67874469 676.80499781 298.06827406 686.0262665600001 304.614185 695.2158759399999 312.10509312 704.65875375 320.09968063 713.9116799999999 328.78694656 722.9756146899999 337.8512525 732.29185781 348.80459562 742.36311 355.79278437 748.46841 364.25843094 755.07832875 372.85167781 760.93228031 382.16734344 766.53392156 391.10692906 771.5071903099999 401.17859281 775.59881625 411.87961625 780.69679969 422.51732 784.19075063 433.15598375 787.81037625 444.61300531 791.39834438 456.07002781 794.13632719 468.15640812 796.37161219 480.36750969 798.38528719 492.39153031 799.99027875 504.4769525 801.62692875 517.31933188 802.3512375 529.52947344 802.3512375 542.18381281 802.3512375 555.27659281 802.3512375 567.93093219 800.74624594 580.64475312 799.23431156 593.61185281 797.88162844 605.63587438 794.98631156 618.35065438 792.27998625 630.280655 789.19471781 643.34273469 785.6700675 655.30343562 781.45276688 666.75853906 776.60613281 678.97251875 771.5071903099999 690.14460219 765.90554812 700.972265 759.67361344 711.57830844 752.81234531 720.76829469 746.48639437 724.98672781 742.86676875 729.45747969 740.28611812 737.9538275 733.04686594 745.13197531 726.05992313 752.24392437 718.8523303100001 759.23211312 710.89068844 764.95966438 703.17943594 771.75789406 695.2158759399999 776.54236625 686.65559906 781.35753969 679.03836375 786.48835063 670.19603906 790.70582469 662.4838275 797.88205344 646.18160062 801.40588812 637.74604031 804.14590344 629.8774546899999 806.88303969 621.44381344 809.339075 613.44859406 811.10147281 606.61994344 813.30422938 598.53070781 817.20798219 584.11552125 819.69471875 571.52693719 821.29785687 559.31537625 822.68417375 549.49547437 824.88789031 534.57662906 825.39061063 532.1849709400001 827.15204844 529.4786456300001 831.87512 521.7366946899999 834.89527531 516.54277594 837.60267125 511.03610906 841.06510531 505.21285781 844.08622063 498.22495594 846.03665844 491.01832125 848.17705531 483.181395 849.81377281 475.09311844 850.56977094 471.12812719 851.19912969 466.28053406 851.19912969 462.03253406 850.56977094 457.783575 850.56977094 452.55799781 849.31009344 447.46001437 847.04593531 437.6391525 844.46326062 432.66684375 842.57614344 427.06520156 842.57614344 425.68086 843.45686188 423.94827469 846.03665844 419.82690937 857.24328031 403.27141406 866.11762719 390.87086156 870.33606031 382.49861811999995 876.06457062 373.4356425 881.03612375 363.48910593999994 886.76655406 352.78948031000004 892.49410531 340.82831063000003 898.94695438 327.26406655999995 902.56481 318.9225225 905.90156469 310.86590531 908.79891875 302.24135249999995 911.63199406 294.56367750000004 913.77143188 286.44278343999997 915.97322938 278.85720656 918.742985 264.03429656000003 920.94670063 248.86410187 922.45677875 235.45719187999998 922.45677875 228.092265 922.45677875 222.11168063000002 922.45677875 216.51003844000002 921.44942094 209.77444500000001 920.0026625 198.22291686999995 917.988905 187.77559969000004 914.90351 178.33272280999995 913.77143188 174.46174686999996 911.63199406 169.86646219 909.80435844 166.62386061999996 907.41260188 162.62816999999995 905.27124594 160.14057656 902.56481 156.89893406 900.17305344 154.31924344000004 897.59421688 152.05326000000002 894.50786281 150.69865875000005 891.73714719 149.34597562 889.47299 148.59096750000003 887.48993281 148.59096750000003 886.00959594 148.59096750000003 883.77613906 149.34597562 879.52604562 151.42392656000004 877.57656781 152.80922719 875.56185125 154.31924344000004 873.32551531 156.30221905999997 871.09205844 158.53558499999997 867.37826375 162.62816999999995 862.97083156 168.48212156 859.5083975 174.46174686999996 856.0469225 179.30838094 852.6794675 184.91098219000003 847.92569563 194.85559968999996 842.57614344 205.21081875000004 841.94678375 205.55810343999997 841.06510531 205.55810343999997 838.86138969 203.95311187000004 837.60267125 201.21512813000004 835.52655313 197.87755125 831.87512 187.77559969000004 826.39796844 173.45443031000002 819.34742 156.30221905999997 814.06118656 147.71028468999998 808.48905688 138.77202468999997 801.9095675 128.69981343999996 794.92233875 118.81755375 791.33518344 114.34794375000001 786.99203 109.50035062999996 777.01342625 99.68140781 777.89606375 98.80072500000006 779.24784313 97.41542436999998 784.22131531 94.45679061999999 804.99592156 84.51121312999999 814.06118656 79.41227062999997 822.68417375 74.43996187000005 831.24480125 68.20802719000005 838.86138969 61.72474219000003 842.57614344 58.861083750000034 845.34685812 55.492807500000026 848.17705531 51.65349093999998 850.56977094 47.40453187000003 851.83040844 43.911539999999945 853.40284625 39.69423936999999 854.03412406 36.10531218999995 854.78724406 31.857313119999958 854.03412406 28.991735619999986 854.03412406 26.160694690000014 853.40284625 23.138744060000022 851.83040844 20.431459689999997 851.19912969 18.29210999999998 849.81377281 15.711459379999951 846.03665844 10.580858440000043 842.57614344 6.457574059999956 839.86970656 3.3742246900000055 837.60267125 1.108240310000042 831.87512-3.109060310000018 825.39061063-6.728685939999991 818.46765969-10.222636869999974 811.10147281-13.558295629999975 802.792205-16.76923875 798.38669187-18.152620309999975 794.41961844-19.28657155999997 784.85067406-21.520896559999983 774.90468969-23.629546870000013 764.95966438-25.770815630000016 754.13296156-27.502440940000042 742.92825875-27.973482190000027 731.47027719-29.357823749999966 720.13893594-29.357823749999966 708.17919406-29.357823749999966 695.90381281-29.357823749999966 683.0633525-28.60281563000001 671.1016925-27.502440940000042 658.26123125-25.770815630000016 645.48313156-24.385515000000055 632.0123525-22.497514690000003 618.98097313-19.28657155999997 606.26619219-16.76923875 593.61185281-13.181271560000027 580.64475312-8.58598687999995 567.93093219-4.7150109399999565 561.25646375-2.479726870000036 555.27659281-0.33941813000001275 551.50043844 1.108240310000042 547.78568469 1.8632484400000067 542.93789281 1.8632484400000067 537.21034063 1.8632484400000067 525.00019906 2.743931249999946 518.79870969 3.3742246900000055 510.83578156 4.253947499999981 505.73663-0.33941813000001275 498.74844125-4.7150109399999565 489.30709531-9.34099500000002 478.85743156-15.070230000000038 472.49956156-18.152620309999975 465.88937281-20.640213750000044 451.222235-26.620799059999968 443.25930781-28.60281563000001 434.91934063-30.868799060000015 423.33663875-33.07242469000005 416.09709031-33.70079906000001 408.41718219-34.33013249999999 400.42259469-35.212733439999965 391.10692906-35.58975843999997 382.16734344-35.58975843999997 372.85167781-35.58975843999997 353.05372906-35.58975843999997 331.55670219-35.212733439999965 310.72069531-33.07242469000005 300.14535125-31.62380718999998 289.94704813-30.113790939999944 280.00202281-28.60281563000001 270.05603844-26.620799059999968 260.83343281-23.629546870000013 251.61178719-21.520896559999983 243.30252031-18.152620309999975 235.43361313-15.070230000000038 228.13170406-11.544620620000046 221.77479312-7.705304060000003 215.41596406-3.109060310000018 213.27652719-0.8440359400000261 210.44345187 1.8632484400000067 208.303055 4.253947499999981 206.35165812 6.961231880000014 204.58830125 9.73087406000002 203.20390344 12.438159369999994 201.22084625 18.29210999999998 200.4974675 21.28240218999997 199.61578906 24.649719379999965 199.61578906 27.734987810000007 200.4974675 31.22701969000002 200.4974675 34.72097155999995 201.22084625 38.21396249999998 201.22084625 40.32357280999997 201.22084625 45.16828781000004 201.56718594 48.916466249999985 203.20390344 53.16446625000003 204.58830125 57.38176686999998 207.10765625 62.479750309999986 208.93241375 64.46368594 210.44345187 66.69705094000005 214.40860531 71.54464499999995 217.55636094 74.06293687000004 220.51511562 75.79360406 223.25417094 78.02697 227.62802469 79.41227062999997 231.09045969 81.49118062000002 235.43361313 83.75620500000002 240.40708437 85.23648187000003 245.3795975 86.74649812999996 251.10810781 87.97542468999995 256.58429937 88.73043281000002 263.06880875 89.61015655999995 270.05603844 90.11477437999997 271.91245531 90.74314780999998 272.28949531 90.74314780999998 273.17213375 91.49815593999995 273.17213375 92.31648187999997 271.91245531 94.07976561999999 268.16700125 95.84209124999995 258.85133563 103.89870843999995 252.61914594 108.87197719000005 245.3795975 115.22958656000003 238.07768844 122.31150468999999 230.4611 131.40613874999997 221.77479312 141.60402468999996 218.50135906 147.08095125 214.15724562 152.80922719 210.44345187 159.41722688000004 207.10765625 166.62386061999996 202.57454375 173.45443031000002 199.61578906 181.32397405999995 196.12169469 189.12828280999997 192.62855938 197.87755125 190.04780375 206.18647781000004 187.65604719 216.51003844000002 186.90100812 216.88802155999997 186.17666937 216.88802155999997 185.79867031 217.64398969 184.91699188 217.64398969 183.43761406 216.88802155999997 182.682575 216.51003844000002 181.67617625 214.77841219000004 181.29817719 212.66976188 180.54313812 210.78080250000005 179.2211 207.69745312999999 174.94030719 200.08117687000004 172.73659063 195.48493312000005 169.24345625 191.51994188000003 165.49800219 186.67330780999998 161.40524844 181.32397405999995 157.062095 176.56943812999998 151.96294344 171.97511250000002 147.21109062 167.63213718999998 142.01791812 164.26386093999997 136.28940781 160.64519437 130.81321625 158.53558499999997 124.32966594 156.89893406 117.97179594 156.30221905999997 117.34243719 156.30221905999997 116.46075875 156.30221905999997 115.01304031 156.89893406 113.87904313 159.41722688000004 111.99096594 160.64519437 109.53588969 166.62386061999996 108.02581156 169.86646219 106.38909406 174.46174686999996 105.03539656 179.30838094 104.31105781 184.03029936999997 102.29634125 194.85559968999996 101.54130219 201.21512813000004 101.54130219 207.69745312999999 101.54130219 222.11168063000002 102.29634125 237.65889937999998 103.55601875 245.65411874999995 105.03539656 253.83641063000005 106.38909406 262.68065437999996 108.78085062 270.89556469 111.48728656 280.36818281 114.25704219 289.55971031 117.97179594 299.03232844 121.46493125 308.09722219 126.28010375 317.31753094 130.81321625 327.26406655999995 136.28940781 336.61100999999996 142.74129781 346.68226125 149.31982719 355.748115 156.18137656 365.81840719 161.90988781 372.80535 169.24345625 380.89458562000004 176.95502375 388.98286125 180.54313812 392.82217875 184.91699188 397.19777156 191.2432025 402.70443844 197.72771188 408.27538125 208.303055 417.74895844 216.2976425 423.57220969Z"  horiz-adv-x="1024" />

    
    <glyph glyph-name="up" unicode="&#58900;" d="M465.044716 513.349503l46.948753 46.948753 440.88731-440.88731-46.948753-46.948753-440.88731 440.88731ZM511.956548 560.240067l46.948753-46.948753-440.833042-440.833042-46.948753 46.948753 440.833042 440.833042Z"  horiz-adv-x="1024" />

    
    <glyph glyph-name="qrcode" unicode="&#59180;" d="M320 748l-256 0 0-256 256 0 0 256zM384 812l0 0 0-384-384 0 0 384 384 0zM128 684l128 0 0-128-128 0zM960 748l-256 0 0-256 256 0 0 256zM1024 812l0 0 0-384-384 0 0 384 384 0zM768 684l128 0 0-128-128 0zM320 108l-256 0 0-256 256 0 0 256zM384 172l0 0 0-384-384 0 0 384 384 0zM128 44l128 0 0-128-128 0zM448 812l64 0 0-64-64 0zM512 748l64 0 0-64-64 0zM448 684l64 0 0-64-64 0zM512 620l64 0 0-64-64 0zM448 556l64 0 0-64-64 0zM512 492l64 0 0-64-64 0zM448 428l64 0 0-64-64 0zM448 300l64 0 0-64-64 0zM512 236l64 0 0-64-64 0zM448 172l64 0 0-64-64 0zM512 108l64 0 0-64-64 0zM448 44l64 0 0-64-64 0zM512-20l64 0 0-64-64 0zM448-84l64 0 0-64-64 0zM512-148l64 0 0-64-64 0zM960 300l64 0 0-64-64 0zM64 300l64 0 0-64-64 0zM128 364l64 0 0-64-64 0zM0 364l64 0 0-64-64 0zM256 364l64 0 0-64-64 0zM320 300l64 0 0-64-64 0zM384 364l64 0 0-64-64 0zM576 300l64 0 0-64-64 0zM640 364l64 0 0-64-64 0zM704 300l64 0 0-64-64 0zM768 364l64 0 0-64-64 0zM832 300l64 0 0-64-64 0zM896 364l64 0 0-64-64 0zM960 172l64 0 0-64-64 0zM576 172l64 0 0-64-64 0zM640 236l64 0 0-64-64 0zM704 172l64 0 0-64-64 0zM832 172l64 0 0-64-64 0zM896 236l64 0 0-64-64 0zM960 44l64 0 0-64-64 0zM576 44l64 0 0-64-64 0zM640 108l64 0 0-64-64 0zM768 108l64 0 0-64-64 0zM832 44l64 0 0-64-64 0zM896 108l64 0 0-64-64 0zM960-84l64 0 0-64-64 0zM640-20l64 0 0-64-64 0zM704-84l64 0 0-64-64 0zM768-20l64 0 0-64-64 0zM832-84l64 0 0-64-64 0zM640-148l64 0 0-64-64 0zM768-148l64 0 0-64-64 0zM896-148l64 0 0-64-64 0z"  horiz-adv-x="1024" />

    
    <glyph glyph-name="yinhao" unicode="&#58913;" d="M65.162-12.353v382.776c-1.629 55.076 6.313 106.791 23.821 155.15 17.503 48.356 42.042 90.905 73.804 127.663 31.659 36.646 69.53 67.087 113.817 91.317 44.184 24.13 92.132 39.601 143.847 46.216v-165.121c-63.42-21.684-106.789-53.748-130.105-96.306-23.416-42.555-35.019-94.675-35.019-156.366h165.119v-385.324l-355.284-0.003zM598.094-12.353v382.776c-1.731 55.076 6.212 106.791 23.716 155.15 17.515 48.356 42.148 90.905 73.806 127.663 31.658 36.646 69.63 67.087 113.817 91.317 44.185 24.13 92.236 39.601 143.954 46.216v-165.121c-63.425-21.684-106.793-53.748-130.108-96.306-23.414-42.555-35.019-94.675-35.019-156.366h165.126v-385.324l-355.292-0.003z"  horiz-adv-x="1024" />

    
    <glyph glyph-name="view" unicode="&#58887;" d="M977.15 404.69933333333336c-9.36 11.879-232.62 291.21-464.85 291.721-231.42 0-455.43-277.86-464.88-289.68l-15.42-19.38 15.36-19.05c9.39-11.91 231.719-291.51 463.319-291.51 245.04 0 455.94 277.44 465.36 289.26l15.959 19.29-14.85 19.35zM510.47 138.1493333333333c-169.71 0.39-345.721 187.38-399.39 249.001 53.85 61.41 231.18 247.2 401.46 247.2 169.68-0.39 345.57-187.321 399.241-248.97-53.82-61.38-217.53-247.23-401.31-247.23zM527.27 565.2593333333334c-95.34 0-173.07-81.12-173.28-180-0.09-48 17.82-94.5 50.46-128.521 32.64-34.05 75.06-54.78 121.319-54.78 89.91 0 173.49 83.31 173.7 182.16 0.18 99.09-76.32 180.93-172.201 181.14zM525.62 268.70933333333323c-30.119 0.15-57.42 12.39-78.69 34.56-21.36 22.26-33.09 51.84-33.001 83.28 0.121 64.71 50.94 117.36 113.52 117.36 62.46-0.119 112.201-53.01 112.05-117.84-0.09-64.62-54.06-117.15-113.879-117.36z"  horiz-adv-x="1025" />

    
    <glyph glyph-name="comment" unicode="&#59110;" d="M512 814.9333333333333c-249.6 0-448-166.4-448-364.8 0-115.2 64-217.6 166.4-288-32-64-64-102.4-160-153.6 185.6-19.2 307.2 32 384 76.8C473.6 85.33333333333337 499.2 85.33333333333337 512 85.33333333333337c249.6 0 448 166.4 448 364.8S761.6 814.9333333333333 512 814.9333333333333zM512 130.13333333333333c-25.6 0-44.8 0-70.4 6.4-32-25.6-160-83.2-230.4-83.2 19.2 19.2 76.8 102.4 76.8 134.4C179.2 245.33333333333337 108.8 341.33333333333337 108.8 450.1333333333333c0 179.2 179.2 320 403.2 320 224 0 403.2-140.8 403.2-320C915.2 277.33333333333337 736 130.13333333333333 512 130.13333333333333z"  horiz-adv-x="1024" />

    
    <glyph glyph-name="time" unicode="&#58932;" d="M512-83.77833333333342c-247.369 0-447.904 200.535-447.904 447.904 0 247.372 200.535 447.904 447.904 447.904 247.372 0 447.904-200.532 447.904-447.904 0-247.369-200.532-447.904-447.904-447.904zM512 756.0466666666666c-216.45 0-391.916-175.466-391.916-391.919 0-216.45 175.466-391.916 391.916-391.916s391.916 175.466 391.916 391.916c0 216.453-175.466 391.919-391.916 391.919zM721.955 308.1386666666666h-265.943v293.94c0 7.732 6.268 13.997 13.997 13.997h27.994c7.732 0 13.997-6.265 13.997-13.997v-237.952h209.955c7.729 0 13.997-6.265 13.997-13.997v-27.994c0.002-7.732-6.266-13.997-13.996-13.997z"  horiz-adv-x="1024" />

    
    <glyph glyph-name="notice" unicode="&#58910;" d="M1024.39845 525.805639 1024.39845 847.58574C1024.39845 862.499701 1011.940352 888.486257 997.83102 893.740369 983.665482 898.937437 967.680046 894.9832 957.723853 883.797729 836.60785 747.650797 681.756112 660.652696 453.688445 642.518787 451.811114 642.348869 440.433459 642.348869 438.61235 641.954416 438.498684 641.954416 245.645649 642.011459 245.645649 642.011459 240.468321 642.011459 232.049662 642.632875 227.611778 640.76863 97.165351 622.296098 0 521.118324 0 387.569928 0 254.078573 122.59488 155.669254 253.098753 137.196721 253.781975 135.953893 253.269864 135.049685 253.269864 133.976772 253.269864 0.655337 380.701072-120.012049 480.825419-120.012049 522.184156-120.012049 522.184142-38.167914 480.825403-38.167914 385.479942-38.167914 329.468691 38.9027 329.468691 132.736366 329.468691 132.79341 438.271349 134.147905 438.271349 134.147905 440.433459 133.753451 442.026014 132.905074 443.903345 132.736371 671.971009 114.60246 836.606628 27.378611 957.723853-108.711276 964.72105-116.619753 974.790929-120.913829 985.030702-120.913829 989.297482-120.913829 993.620469-120.179539 997.83102-118.653918 1011.996558-113.456849 1024.39845-111.648433 1024.39845-96.734474L1024.39845 249.223769C1089.138278 262.556276 1137.777778 319.386622 1137.777778 387.573569 1137.777778 455.754447 1089.138278 512.586006 1024.39845 525.805639ZM374.182263 218.147312 263.68466 218.196318C170.389736 218.196318 80.41796 295.748558 80.41796 387.665374 80.41796 479.582192 170.389736 558.347032 263.68466 558.347032L374.182263 558.056134 374.182263 218.148357 374.182263 218.147312ZM460.046513 215.697322 460.046513 562.837957C636.995777 581.502202 810.661993 647.112973 942.587153 772.426595L942.587153 4.803143C838.083504 128.680289 636.995777 197.033076 460.046513 215.697322ZM1024.397221 308.253341 1024.397221 466.884087C1057.222406 455.077201 1080.888274 424.2322 1080.888274 387.568713 1080.888274 350.905228 1057.222406 320.004396 1024.397221 308.253341L1024.397221 308.253341Z"  horiz-adv-x="1138" />

    


  </font>
</defs>
</svg>
