<svg t="1612527329836" class="icon" viewBox="0 0 1024 1024" version="1.1" xmlns="http://www.w3.org/2000/svg" p-id="1825" width="200" height="200"><path d="M706.76923627 150.71190958H317.23076373c-25.20543057 0-45.8280556 20.62262501-45.82805557 45.82805559v332.25340304c0 25.20543057 20.62262501 45.8280556 45.82805557 45.82805558h389.53847254c25.20543057 0 45.8280556-20.62262501 45.82805557-45.82805558V196.53996517c0-25.20543057-20.62262501-45.8280556-45.82805557-45.82805558zM317.23076373 173.62593739h389.53847254c12.60271529 0 22.9140278 10.31131251 22.91402778 22.91402778v228.85385262l-70.46063547-70.46063548c-8.59276042-8.59276042-20.04977433-13.46199133-32.36606426-13.46199133-12.31628994 0-23.77330384 4.86923091-32.36606426 13.46199133l-35.80316843 35.80316843-71.8927622-71.89276221c-17.75837154-17.75837154-46.97375697-17.75837154-64.73212853 0L294.31673595 446.58929348V196.53996517c0-12.60271529 10.31131251-22.9140278 22.91402778-22.91402778z m-22.91402778 355.16743082v-49.83801046l144.07194976-144.07194976c8.87918577-8.87918577 23.48687849-8.87918577 32.36606427 0l216.82398799 216.823988H317.23076373c-12.60271529 0-22.9140278-10.31131251-22.91402778-22.91402778z m423.05023816 20.33619967L575.01357643 406.77617019l35.80316844-35.80316843c4.29638021-4.29638021 10.02488716-6.58778299 16.32624481-6.58778299 6.0149323 0 11.74343925 2.29140277 16.3262448 6.58778299l86.50045492 86.50045493V528.79336821c-0.28642535 8.87918577-5.4420816 16.61267016-12.60271529 20.33619967z" p-id="1826" fill="#eeeeee"></path><path d="M626.57013898 288.19607635c22.05475176 0 40.09954865-18.04479689 40.09954864-40.09954863s-18.04479689-40.09954865-40.09954864-40.09954865-40.09954865 18.04479689-40.09954864 40.09954865 18.04479689 40.09954865 40.09954864 40.09954863z m0-57.28506949c9.45203647 0 17.18552085 7.73348438 17.18552085 17.18552085s-7.73348438 17.18552085-17.18552085 17.18552085-17.18552085-7.73348438-17.18552085-17.18552085 7.73348438-17.18552085 17.18552085-17.18552085z" p-id="1827" fill="#eeeeee"></path></svg>